<svg id="Layer_1" data-name="Layer 1" xmlns="http://www.w3.org/2000/svg" viewBox="0 0 128.58 128.58"><title>launchit</title><path d="M63.92,15.48s-10.77,9.7-10.77,23.77,2.14,49.67,2.14,49.67L72.63,89S74.7,53.31,74.7,39.25,63.92,15.48,63.92,15.48Z" fill="none" stroke="#426c7f" stroke-linecap="round" stroke-width="3"/><circle cx="63.92" cy="42.99" r="4.32" fill="none" stroke="#26cb70" stroke-linecap="round" stroke-width="3"/><path d="M54.83,80.36l18.26-.07m-19.26-18-9.4,9.4V83.42L54.6,76.77M74,63.78l9.4,9.4-.08,11.69L73.25,78.3" fill="none" stroke="#426c7f" stroke-linecap="round" stroke-width="3"/><path d="M12.21,107.76v-16h4.32v16.22c0,.93.43,1.22.78,1.22a1.89,1.89,0,0,0,.53-.06l.51,3.18a5.46,5.46,0,0,1-2.17.36C13.22,112.64,12.21,110.71,12.21,107.76Z" fill="#426c7f"/><path d="M19.93,108.25c0-3.07,2.45-4.73,8.21-5.34a2,2,0,0,0-2.31-2.1A8,8,0,0,0,22,102.12l-1.53-2.83a11.88,11.88,0,0,1,6.22-1.92c3.72,0,5.78,2.13,5.78,6.59v8.33H28.93l-.31-1.49h-.11a6.36,6.36,0,0,1-4.23,1.84A4.2,4.2,0,0,1,19.93,108.25Zm8.21-.19v-2.55c-3.07.42-4.07,1.3-4.07,2.4,0,.93.64,1.39,1.67,1.39A3.31,3.31,0,0,0,28.14,108.06Z" fill="#426c7f"/><path d="M35.93,106.77v-9h4.32v8.48c0,2.1.56,2.76,1.81,2.76,1.08,0,1.74-.46,2.59-1.61V97.73H49v14.56H45.44l-.31-2H45a5.67,5.67,0,0,1-4.57,2.37C37.28,112.64,35.93,110.41,35.93,106.77Z" fill="#426c7f"/><path d="M52.74,97.73h3.52l.31,1.84h.11a6.64,6.64,0,0,1,4.68-2.2c3.17,0,4.52,2.24,4.52,5.88v9H61.56V103.8c0-2.09-.56-2.75-1.81-2.75a3.71,3.71,0,0,0-2.7,1.41v9.83H52.74Z" fill="#426c7f"/><path d="M68.68,105a7.33,7.33,0,0,1,7.59-7.64,6.31,6.31,0,0,1,4.25,1.57l-2,2.77a2.92,2.92,0,0,0-2-.85c-2.07,0-3.41,1.63-3.41,4.15s1.39,4.15,3.27,4.15A4.35,4.35,0,0,0,79,108.09l1.69,2.82a7.26,7.26,0,0,1-4.8,1.73C71.82,112.64,68.68,109.85,68.68,105Z" fill="#426c7f"/><path d="M83.23,91.72h4.32v5l-.2,2.64a6.55,6.55,0,0,1,4.5-2c3.17,0,4.52,2.24,4.52,5.88v9H92.05V103.8c0-2.09-.56-2.75-1.81-2.75a3.68,3.68,0,0,0-2.69,1.41v9.83H83.23Z" fill="#426c7f"/><path d="M99.65,93.34a2.51,2.51,0,1,1,2.5,2.26A2.3,2.3,0,0,1,99.65,93.34Zm.34,4.39h4.31v14.56H100Z" fill="#26cb70"/><path d="M108.67,107v-5.88h-2V97.89l2.23-.16.51-3.87H113v3.87h3.49v3.38H113v5.83c0,1.65.75,2.32,1.88,2.32a4.35,4.35,0,0,0,1.39-.28l.68,3.13a10.2,10.2,0,0,1-3.24.53C110.1,112.64,108.67,110.37,108.67,107Z" fill="#26cb70"/></svg>